<svg xmlns="http://www.w3.org/2000/svg" width="40" height="40" viewBox="0 0 40 40" fill="none">
  <path d="M18.4229 20.0001L25.2116 26.7885C25.4422 27.0193 25.5603 27.3094 25.5658 27.6589C25.5711 28.0081 25.453 28.3035 25.2116 28.5451C24.97 28.7865 24.6772 28.9072 24.3333 28.9072C23.9894 28.9072 23.6966 28.7865 23.455 28.5451L15.9646 21.0547C15.8087 20.8986 15.6987 20.734 15.6346 20.561C15.5704 20.3879 15.5383 20.201 15.5383 20.0001C15.5383 19.7993 15.5704 19.6124 15.6346 19.4393C15.6987 19.2663 15.8087 19.1017 15.9646 18.9456L23.455 11.4551C23.6858 11.2246 23.976 11.1065 24.3254 11.101C24.6746 11.0957 24.97 11.2138 25.2116 11.4551C25.453 11.6968 25.5737 11.9896 25.5737 12.3335C25.5737 12.6774 25.453 12.9701 25.2116 13.2118L18.4229 20.0001Z" fill="white"/>
</svg>