<svg xmlns="http://www.w3.org/2000/svg" width="40" height="40" viewBox="0 0 40 40" fill="none">
  <path d="M21.5771 19.9999L14.7884 13.2115C14.5578 12.9807 14.4397 12.6906 14.4342 12.3411C14.4289 11.9919 14.547 11.6965 14.7884 11.4549C15.03 11.2135 15.3228 11.0928 15.6667 11.0928C16.0106 11.0928 16.3034 11.2135 16.545 11.4549L24.0354 18.9453C24.1913 19.1014 24.3013 19.266 24.3654 19.439C24.4296 19.6121 24.4617 19.799 24.4617 19.9999C24.4617 20.2007 24.4296 20.3876 24.3654 20.5607C24.3013 20.7337 24.1913 20.8983 24.0354 21.0544L16.545 28.5449C16.3142 28.7754 16.024 28.8935 15.6746 28.899C15.3254 28.9043 15.03 28.7862 14.7884 28.5449C14.547 28.3032 14.4263 28.0104 14.4263 27.6665C14.4263 27.3226 14.547 27.0299 14.7884 26.7882L21.5771 19.9999Z" fill="white"/>
</svg>