<svg xmlns="http://www.w3.org/2000/svg" width="24" height="24" viewBox="0 0 24 24" fill="none">
  <path d="M6.44423 16.8323C6.14939 16.6683 5.91831 16.4469 5.75098 16.1683C5.58364 15.8896 5.49998 15.577 5.49998 15.2305V10.892L3.50398 9.78827C3.33981 9.6946 3.21931 9.58069 3.14248 9.44652C3.06548 9.31252 3.02698 9.16352 3.02698 8.99952C3.02698 8.83552 3.06548 8.6866 3.14248 8.55277C3.21931 8.41877 3.33981 8.30494 3.50398 8.21127L11.139 4.05127C11.2745 3.97594 11.4141 3.9206 11.5577 3.88527C11.7014 3.8501 11.8488 3.83252 12 3.83252C12.1511 3.83252 12.2986 3.8501 12.4422 3.88527C12.5859 3.9206 12.7256 3.97585 12.8615 4.05102L21.4845 8.74402C21.6383 8.82735 21.7563 8.94002 21.8385 9.08202C21.9205 9.22419 21.9615 9.37752 21.9615 9.54202V15.442C21.9615 15.6545 21.8896 15.8327 21.7457 15.9765C21.6019 16.1202 21.4237 16.192 21.2112 16.192C20.9986 16.192 20.8205 16.1202 20.677 15.9765C20.5333 15.8327 20.4615 15.6545 20.4615 15.442V9.83052L18.5 10.892V15.2305C18.5 15.577 18.4163 15.8896 18.249 16.1683C18.0816 16.4469 17.8506 16.6683 17.5557 16.8323L12.8635 19.369C12.7263 19.4459 12.5859 19.5019 12.4422 19.5373C12.2986 19.5724 12.1511 19.59 12 19.59C11.8488 19.59 11.7014 19.5724 11.5577 19.5373C11.4141 19.5019 11.2736 19.4459 11.1365 19.369L6.44423 16.8323ZM11.8845 12.642C11.9295 12.6677 11.9696 12.6805 12.0047 12.6805C12.0401 12.6805 12.0801 12.6677 12.125 12.642L18.8405 8.99977L12.125 5.36702C12.0801 5.34135 12.0401 5.32852 12.0047 5.32852C11.9696 5.32852 11.9295 5.34135 11.8845 5.36702L5.15948 8.99977L11.8845 12.642ZM11.875 18.0708C11.9198 18.0964 11.9615 18.1093 12 18.1093C12.0385 18.1093 12.0801 18.0964 12.125 18.0708L16.8557 15.515C16.9071 15.483 16.9439 15.4462 16.9662 15.4045C16.9887 15.3629 17 15.3099 17 15.2458V11.692L12.8787 13.9555C12.7416 14.0324 12.5993 14.0884 12.452 14.1238C12.3045 14.1591 12.1538 14.1768 12 14.1768C11.8461 14.1768 11.6955 14.1591 11.548 14.1238C11.4006 14.0884 11.2584 14.0324 11.1212 13.9555L6.99998 11.692V15.2458C6.99998 15.2971 7.01123 15.3469 7.03373 15.395C7.05606 15.443 7.09289 15.483 7.14423 15.515L11.875 18.0708Z" fill="#4F5B92"/>
</svg>