<svg xmlns="http://www.w3.org/2000/svg" width="24" height="24" viewBox="0 0 24 24" fill="none">
  <path d="M6.30775 22.4998C5.80258 22.4998 5.375 22.3248 5.025 21.9748C4.675 21.6248 4.5 21.1972 4.5 20.692V10.3075C4.5 9.80235 4.675 9.37477 5.025 9.02477C5.375 8.67477 5.80258 8.49977 6.30775 8.49977H8.1155C8.32817 8.49977 8.50633 8.5716 8.65 8.71527C8.7935 8.85877 8.86525 9.03694 8.86525 9.24977C8.86525 9.4626 8.7935 9.64077 8.65 9.78427C8.50633 9.92794 8.32817 9.99977 8.1155 9.99977H6.30775C6.23075 9.99977 6.16025 10.0319 6.09625 10.096C6.03208 10.16 6 10.2305 6 10.3075V20.692C6 20.769 6.03208 20.8395 6.09625 20.9035C6.16025 20.9677 6.23075 20.9998 6.30775 20.9998H17.6923C17.7692 20.9998 17.8398 20.9677 17.9038 20.9035C17.9679 20.8395 18 20.769 18 20.692V10.3075C18 10.2305 17.9679 10.16 17.9038 10.096C17.8398 10.0319 17.7692 9.99977 17.6923 9.99977H15.8845C15.6718 9.99977 15.4937 9.92794 15.35 9.78427C15.2065 9.64077 15.1348 9.4626 15.1348 9.24977C15.1348 9.03694 15.2065 8.85877 15.35 8.71527C15.4937 8.5716 15.6718 8.49977 15.8845 8.49977H17.6923C18.1974 8.49977 18.625 8.67477 18.975 9.02477C19.325 9.37477 19.5 9.80235 19.5 10.3075V20.692C19.5 21.1972 19.325 21.6248 18.975 21.9748C18.625 22.3248 18.1974 22.4998 17.6923 22.4998H6.30775ZM11.25 4.71902L9.927 6.04202C9.77817 6.19085 9.60408 6.26427 9.40475 6.26227C9.20542 6.26044 9.02817 6.18194 8.873 6.02677C8.72817 5.8716 8.65317 5.69594 8.648 5.49977C8.643 5.3036 8.718 5.12802 8.873 4.97302L11.3672 2.47877C11.5481 2.29794 11.759 2.20752 12 2.20752C12.241 2.20752 12.4519 2.29794 12.6328 2.47877L15.127 4.97302C15.2653 5.11135 15.3362 5.28277 15.3395 5.48727C15.3427 5.69177 15.2718 5.8716 15.127 6.02677C14.9718 6.18194 14.7936 6.25952 14.5922 6.25952C14.3911 6.25952 14.2129 6.18194 14.0577 6.02677L12.75 4.71902V14.9998C12.75 15.2126 12.6782 15.3908 12.5345 15.5343C12.391 15.6779 12.2128 15.7498 12 15.7498C11.7872 15.7498 11.609 15.6779 11.4655 15.5343C11.3218 15.3908 11.25 15.2126 11.25 14.9998V4.71902Z" fill="#4F5B92"/>
</svg>