<svg width="16" height="16" viewBox="0 0 16 16" fill="none" xmlns="http://www.w3.org/2000/svg">
<path d="M4.84989 12.8255L7.99989 10.9255L11.1499 12.8505L10.3249 9.25048L13.0999 6.85048L9.44989 6.52548L7.99989 3.12548L6.54989 6.50048L2.89989 6.82548L5.67489 9.25048L4.84989 12.8255ZM7.99989 12.689L4.10964 15.035C3.96464 15.1196 3.81939 15.1552 3.67389 15.1417C3.52839 15.1282 3.39672 15.0792 3.27889 14.9947C3.16089 14.9101 3.0698 14.7995 3.00564 14.663C2.94164 14.5265 2.93139 14.3755 2.97489 14.21L4.00764 9.79273L0.573137 6.81973C0.444803 6.70823 0.363053 6.57906 0.327887 6.43223C0.292553 6.28539 0.301803 6.14273 0.355637 6.00423C0.40947 5.86589 0.487053 5.75281 0.588387 5.66498C0.68972 5.57714 0.82822 5.51973 1.00389 5.49273L5.53639 5.09673L7.29614 0.925476C7.36014 0.770309 7.45722 0.655559 7.58739 0.581226C7.71755 0.506892 7.85505 0.469727 7.99989 0.469727C8.14472 0.469727 8.28222 0.506892 8.41239 0.581226C8.54255 0.655559 8.63964 0.770309 8.70364 0.925476L10.4634 5.09673L14.9959 5.49273C15.1716 5.51973 15.3101 5.57714 15.4114 5.66498C15.5127 5.75281 15.5903 5.86589 15.6441 6.00423C15.698 6.14273 15.7072 6.28539 15.6719 6.43223C15.6367 6.57906 15.555 6.70823 15.4266 6.81973L11.9921 9.79273L13.0249 14.21C13.0684 14.3755 13.0581 14.5265 12.9941 14.663C12.93 14.7995 12.8389 14.9101 12.7209 14.9947C12.6031 15.0792 12.4714 15.1282 12.3259 15.1417C12.1804 15.1552 12.0351 15.1196 11.8901 15.035L7.99989 12.689Z" fill="#2C1229"/>
</svg>
