<svg width="20" height="20" viewBox="0 0 20 20" fill="none" xmlns="http://www.w3.org/2000/svg">
<path d="M16.1008 4.635C15.9742 4.56969 15.8509 4.49793 15.7316 4.42C15.3846 4.19078 15.0664 3.92049 14.7841 3.615C14.0766 2.80583 13.8125 1.985 13.7158 1.41083H13.7191C13.6383 0.933333 13.6716 0.625 13.6775 0.625H10.4566V13.0775C10.4578 13.2442 10.4555 13.4094 10.45 13.5733L10.4466 13.6342C10.4466 13.6431 10.4458 13.6522 10.4441 13.6617V13.6692C10.4103 14.1159 10.2672 14.5474 10.0275 14.9258C9.7877 15.3042 9.45861 15.6178 9.06915 15.8392C8.66322 16.0713 8.2034 16.1925 7.73581 16.1908C6.23581 16.1908 5.01915 14.9675 5.01915 13.4567C5.01915 11.9458 6.23581 10.7217 7.73581 10.7217C8.01998 10.7217 8.30248 10.7667 8.57248 10.855L8.57665 7.575C7.75666 7.46931 6.92367 7.53471 6.13022 7.76706C5.33677 7.99942 4.60009 8.39369 3.96665 8.925C3.41173 9.40732 2.94504 9.98258 2.58748 10.625C2.45165 10.8592 1.93831 11.8017 1.87665 13.33C1.83748 14.1967 2.09831 15.0967 2.22248 15.4675V15.4758C2.29998 15.6942 2.60331 16.4408 3.09665 17.07C3.49487 17.5746 3.96486 18.0182 4.49165 18.3867V18.3783L4.49915 18.3867C6.05748 19.445 7.78665 19.3758 7.78665 19.3758C8.08581 19.3633 9.08831 19.3758 10.2266 18.8367C11.4891 18.2383 12.2075 17.3475 12.2075 17.3475C12.6671 16.8154 13.0324 16.2086 13.2875 15.5533C13.5791 14.7867 13.6758 13.8683 13.6758 13.5017V6.89417C13.715 6.9175 14.2358 7.26167 14.2358 7.26167C14.2358 7.26167 14.9858 7.7425 16.155 8.055C16.9933 8.2775 18.1241 8.325 18.1241 8.325V5.1275C17.7283 5.17083 16.9241 5.04583 16.1 4.63583" fill="white" />
</svg>
