<svg width="28" height="28" viewBox="0 0 28 28" fill="none" xmlns="http://www.w3.org/2000/svg">
<path fill-rule="evenodd" clip-rule="evenodd" d="M14 4.66675C14.9975 4.66675 16.0207 4.69241 17.0124 4.73441L18.1837 4.79041L19.3049 4.85691L20.3549 4.92808L21.3139 5.00275C22.3548 5.08195 23.3343 5.52592 24.08 6.25645C24.8257 6.98698 25.2897 7.95721 25.3902 8.99625L25.4369 9.49208L25.5244 10.5537C25.606 11.6539 25.6667 12.8532 25.6667 14.0001C25.6667 15.1469 25.606 16.3462 25.5244 17.4464L25.4369 18.5081L25.3902 19.0039C25.2896 20.0431 24.8255 21.0135 24.0795 21.7441C23.3336 22.4746 22.3538 22.9185 21.3127 22.9974L20.356 23.0709L19.306 23.1432L18.1837 23.2097L17.0124 23.2657C16.0088 23.3092 15.0045 23.3318 14 23.3334C12.9956 23.3318 11.9912 23.3092 10.9877 23.2657L9.81637 23.2097L8.69521 23.1432L7.64521 23.0709L6.68621 22.9974C5.64532 22.9182 4.66577 22.4742 3.92009 21.7437C3.17441 21.0132 2.71043 20.043 2.60987 19.0039L2.56321 18.5081L2.47571 17.4464C2.38685 16.2997 2.33937 15.1502 2.33337 14.0001C2.33337 12.8532 2.39404 11.6539 2.47571 10.5537L2.56321 9.49208L2.60987 8.99625C2.71039 7.95739 3.1742 6.98731 3.91965 6.2568C4.66509 5.5263 5.64436 5.08222 6.68504 5.00275L7.64287 4.92808L8.69287 4.85691L9.81521 4.79041L10.9865 4.73441C11.9905 4.69093 12.9952 4.66837 14 4.66675ZM11.6667 11.1709V16.8292C11.6667 17.3682 12.25 17.7042 12.7167 17.4359L17.6167 14.6067C17.7233 14.5454 17.8119 14.457 17.8735 14.3505C17.9351 14.244 17.9675 14.1231 17.9675 14.0001C17.9675 13.8771 17.9351 13.7562 17.8735 13.6497C17.8119 13.5432 17.7233 13.4548 17.6167 13.3934L12.7167 10.5654C12.6103 10.504 12.4895 10.4716 12.3666 10.4716C12.2437 10.4717 12.1229 10.504 12.0165 10.5655C11.9101 10.627 11.8217 10.7154 11.7603 10.8219C11.6989 10.9284 11.6666 11.0492 11.6667 11.1721V11.1709Z" fill="white" />
</svg>
