<svg id="Layer_1" data-name="Layer 1" xmlns="http://www.w3.org/2000/svg" xmlns:xlink="http://www.w3.org/1999/xlink" viewBox="0 0 928 510"><defs><style>.cls-1{fill:url(#linear-gradient);}.cls-2{fill:#263d8a;}</style><linearGradient id="linear-gradient" x1="22.43" y1="255" x2="203.19" y2="255" gradientUnits="userSpaceOnUse"><stop offset="0" stop-color="#263c86"/><stop offset="0.02" stop-color="#263c86"/><stop offset="0.5" stop-color="#263c86"/><stop offset="1" stop-color="#182562"/></linearGradient></defs><path class="cls-1" d="M203.19,232.88l-12.07-12.07L169,242.93l-44.13-44.12L147,176.68l-12.06-12.06-22.12,22.12L90.68,164.62,78.62,176.68l22.12,22.13L56.61,242.93,34.49,220.81,22.43,232.88,44.55,255,22.43,277.12l12.06,12.07,22.12-22.12,44.13,44.12L78.62,333.32l12.06,12.06,22.13-22.12,22.12,22.12L147,333.32l-22.12-22.13L169,267.07l22.12,22.12,12.07-12.07L181.07,255Zm-90.38,66.25L68.68,255l44.13-44.13L156.93,255Z"/><path class="cls-2" d="M272.65,197.45a18.88,18.88,0,0,1,6.44-4.15,22,22,0,0,1,8.19-1.47,20.45,20.45,0,0,1,8.23,1.67,21.48,21.48,0,0,1,7,5l6.85-6.44a25.39,25.39,0,0,0-9.78-7.13,35.24,35.24,0,0,0-24.93-.24,29.05,29.05,0,0,0-9.7,6.15,28.25,28.25,0,0,0-6.44,9.29,31.34,31.34,0,0,0,0,23.47,28.58,28.58,0,0,0,16.05,15.44,33.18,33.18,0,0,0,12.15,2.16,32.77,32.77,0,0,0,12.87-2.45,25.69,25.69,0,0,0,9.78-7.17l-6.85-6.43a21,21,0,0,1-7,5.09,20.45,20.45,0,0,1-8.23,1.67,22,22,0,0,1-8.19-1.47,19,19,0,0,1-6.44-4.15,19.43,19.43,0,0,1-4.28-6.36,21.76,21.76,0,0,1,0-16.13A19.32,19.32,0,0,1,272.65,197.45Z"/><path class="cls-2" d="M368.23,190.81a28.81,28.81,0,0,0-9.74-6.11,33.79,33.79,0,0,0-12.22-2.16,33.34,33.34,0,0,0-12.3,2.2,29.86,29.86,0,0,0-9.78,6.15,27.74,27.74,0,0,0-6.44,9.29,30.93,30.93,0,0,0,0,23.31,28.31,28.31,0,0,0,6.44,9.33A29.35,29.35,0,0,0,334,239a35.45,35.45,0,0,0,24.48,0,28.29,28.29,0,0,0,16.14-15.48,31.24,31.24,0,0,0,0-23.43A27.93,27.93,0,0,0,368.23,190.81Zm-3.5,29.13a19.38,19.38,0,0,1-4.2,6.36,18.82,18.82,0,0,1-6.32,4.15,20.9,20.9,0,0,1-7.94,1.47,21.59,21.59,0,0,1-8-1.47,18.3,18.3,0,0,1-6.39-4.19,20.14,20.14,0,0,1-4.24-6.4,21.45,21.45,0,0,1,0-16,20.19,20.19,0,0,1,4.24-6.36,18.16,18.16,0,0,1,6.39-4.19,21.59,21.59,0,0,1,8-1.47,20.9,20.9,0,0,1,7.94,1.47,19.14,19.14,0,0,1,6.36,4.15,18.39,18.39,0,0,1,4.2,6.36,21.65,21.65,0,0,1,1.46,8.06A21.09,21.09,0,0,1,364.73,219.94Z"/><path class="cls-2" d="M424.62,221.33a18.25,18.25,0,0,0,11.28-17.69A19.78,19.78,0,0,0,433,192.73a18.57,18.57,0,0,0-8.35-7,32,32,0,0,0-13-2.41H388.15v57h10.6V223.77h12.87c.76,0,1.47-.05,2.2-.09l11.65,16.71h11.41l-13.13-18.74C424,221.54,424.34,221.45,424.62,221.33Zm-2.94-26a10.3,10.3,0,0,1,3.55,8.35,10.41,10.41,0,0,1-3.55,8.4q-3.54,3-10.55,3H398.75V192.32h12.38Q418.14,192.32,421.68,195.29Z"/><polygon class="cls-2" points="487.89 222.04 456.44 183.35 447.72 183.35 447.72 240.39 458.23 240.39 458.23 201.72 489.6 240.39 498.32 240.39 498.32 183.35 487.89 183.35 487.89 222.04"/><polygon class="cls-2" points="524.31 215.78 551.85 215.78 551.85 207.07 524.31 207.07 524.31 192.32 555.36 192.32 555.36 183.35 513.72 183.35 513.72 240.39 556.5 240.39 556.5 231.43 524.31 231.43 524.31 215.78"/><path class="cls-2" d="M604.78,221.33a18.25,18.25,0,0,0,11.28-17.69,19.78,19.78,0,0,0-2.93-10.91,18.57,18.57,0,0,0-8.35-7,32,32,0,0,0-13-2.41H568.31v57h10.6V223.77h12.87c.76,0,1.48-.05,2.2-.09l11.65,16.71H617l-13.13-18.74C604.19,221.54,604.5,221.45,604.78,221.33Zm-2.94-26a10.3,10.3,0,0,1,3.55,8.35,10.41,10.41,0,0,1-3.55,8.4q-3.54,3-10.55,3H578.91V192.32h12.38Q598.3,192.32,601.84,195.29Z"/><path class="cls-2" d="M661.94,212.24a31.16,31.16,0,0,0-6.6-2.85q-3.58-1.09-7.25-1.92c-2.45-.54-4.66-1.11-6.65-1.71a12.79,12.79,0,0,1-4.8-2.48,5.3,5.3,0,0,1-1.84-4.2,6.43,6.43,0,0,1,1.27-3.87,8.54,8.54,0,0,1,4-2.81,20,20,0,0,1,7.09-1.06,30.07,30.07,0,0,1,7.82,1.1,31.39,31.39,0,0,1,7.91,3.38l3.34-8.23a29.58,29.58,0,0,0-8.8-3.75,40.62,40.62,0,0,0-10.19-1.3,31.16,31.16,0,0,0-12.91,2.32,17.07,17.07,0,0,0-7.58,6.19,15.45,15.45,0,0,0-2.49,8.52A13,13,0,0,0,631,211.75a32.57,32.57,0,0,0,6.65,2.89c2.41.77,4.83,1.4,7.25,1.92s4.61,1.09,6.6,1.71a14,14,0,0,1,4.85,2.53,5.24,5.24,0,0,1,1.87,4.19,6,6,0,0,1-1.3,3.79,8.61,8.61,0,0,1-4.08,2.65,22.29,22.29,0,0,1-7.25,1,30.87,30.87,0,0,1-10.35-1.79,29.55,29.55,0,0,1-8.47-4.49l-3.67,8.23a28.73,28.73,0,0,0,9.74,4.93,42,42,0,0,0,12.75,1.92,31.71,31.71,0,0,0,13-2.32,17.07,17.07,0,0,0,7.61-6.2,15.28,15.28,0,0,0,2.49-8.43,13.53,13.53,0,0,0-1.83-7.37A14,14,0,0,0,661.94,212.24Z"/><polygon class="cls-2" points="671.8 192.32 690.7 192.32 690.7 240.39 701.29 240.39 701.29 192.32 720.2 192.32 720.2 183.35 671.8 183.35 671.8 192.32"/><path class="cls-2" d="M776.87,190.81a28.81,28.81,0,0,0-9.74-6.11,33.79,33.79,0,0,0-12.22-2.16,33.42,33.42,0,0,0-12.3,2.2,29.86,29.86,0,0,0-9.78,6.15,27.74,27.74,0,0,0-6.44,9.29,30.93,30.93,0,0,0,0,23.31,28.31,28.31,0,0,0,6.44,9.33,29.35,29.35,0,0,0,9.82,6.19,35.45,35.45,0,0,0,24.48,0,28.29,28.29,0,0,0,16.14-15.48,31.24,31.24,0,0,0,0-23.43A27.93,27.93,0,0,0,776.87,190.81Zm-3.5,29.13a19.38,19.38,0,0,1-4.2,6.36,18.88,18.88,0,0,1-6.31,4.15,21,21,0,0,1-8,1.47,21.63,21.63,0,0,1-8-1.47,18.3,18.3,0,0,1-6.39-4.19,20.56,20.56,0,0,1,0-28.77,18.16,18.16,0,0,1,6.39-4.19,21.63,21.63,0,0,1,8-1.47,21,21,0,0,1,8,1.47,19.2,19.2,0,0,1,6.35,4.15,18.39,18.39,0,0,1,4.2,6.36,21.65,21.65,0,0,1,1.46,8.06A21.09,21.09,0,0,1,773.37,219.94Z"/><polygon class="cls-2" points="836.97 222.04 805.51 183.35 796.79 183.35 796.79 240.39 807.3 240.39 807.3 201.72 838.68 240.39 847.39 240.39 847.39 183.35 836.97 183.35 836.97 222.04"/><polygon class="cls-2" points="873.39 231.43 873.39 215.78 900.93 215.78 900.93 207.07 873.39 207.07 873.39 192.32 904.43 192.32 904.43 183.35 862.8 183.35 862.8 240.39 905.58 240.39 905.58 231.43 873.39 231.43"/><path class="cls-2" d="M276.77,286.35a13.51,13.51,0,0,1,5-3.27A17.47,17.47,0,0,1,288.1,282a15.72,15.72,0,0,1,7.27,1.69,19.84,19.84,0,0,1,6.05,4.93l10.17-9.2a26.3,26.3,0,0,0-10.29-7.95,37.28,37.28,0,0,0-26.35-.57,29.59,29.59,0,0,0-9.84,6.06,27.48,27.48,0,0,0-6.54,9.32,31.23,31.23,0,0,0,0,23.72,27.58,27.58,0,0,0,6.54,9.32,29.41,29.41,0,0,0,9.84,6.05,34.52,34.52,0,0,0,12.35,2.14,34.16,34.16,0,0,0,14-2.74,26.68,26.68,0,0,0,10.29-8l-10.17-9.2a19.4,19.4,0,0,1-6.05,5,15.73,15.73,0,0,1-7.27,1.7,17.47,17.47,0,0,1-6.37-1.13,13.76,13.76,0,0,1-5-3.27,15.24,15.24,0,0,1-3.23-5.13,19.29,19.29,0,0,1,0-13.23A15.2,15.2,0,0,1,276.77,286.35Z"/><path class="cls-2" d="M369.6,277a29.64,29.64,0,0,0-9.92-6.14,37.14,37.14,0,0,0-25,0,29.14,29.14,0,0,0-16.5,15.5A28.09,28.09,0,0,0,315.78,298a28.58,28.58,0,0,0,2.38,11.74,29,29,0,0,0,6.58,9.36,29.32,29.32,0,0,0,10,6.17,36.87,36.87,0,0,0,25,0,29.93,29.93,0,0,0,10-6.13,27.76,27.76,0,0,0,6.58-9.32A29.27,29.27,0,0,0,378.56,298a28.29,28.29,0,0,0-2.38-11.7A28.68,28.68,0,0,0,369.6,277Zm-8.35,27.71a15.36,15.36,0,0,1-3.23,5.09,14,14,0,0,1-4.84,3.27,16.55,16.55,0,0,1-12,0,14.45,14.45,0,0,1-4.88-3.27,14.61,14.61,0,0,1-3.23-5.09,20.16,20.16,0,0,1,0-13.31,14.57,14.57,0,0,1,3.23-5.08,14.16,14.16,0,0,1,4.88-3.27,16.55,16.55,0,0,1,12,0,13.73,13.73,0,0,1,4.84,3.27,15.32,15.32,0,0,1,3.23,5.08,19.51,19.51,0,0,1,0,13.31Z"/><polygon class="cls-2" points="425.04 299.93 400.19 269.84 387.03 269.84 387.03 326.33 402.61 326.33 402.61 296.23 427.54 326.33 440.69 326.33 440.69 269.84 425.04 269.84 425.04 299.93"/><polygon class="cls-2" points="490.08 299.93 465.23 269.84 452.07 269.84 452.07 326.33 467.65 326.33 467.65 296.23 492.58 326.33 505.74 326.33 505.74 269.84 490.08 269.84 490.08 299.93"/><polygon class="cls-2" points="532.85 303.57 557.94 303.57 557.94 291.71 532.85 291.71 532.85 282.27 561.33 282.27 561.33 269.84 517.11 269.84 517.11 326.33 562.38 326.33 562.38 313.9 532.85 313.9 532.85 303.57"/><path class="cls-2" d="M588.89,286.35a13.59,13.59,0,0,1,5-3.27,17.53,17.53,0,0,1,6.38-1.13,15.71,15.71,0,0,1,7.26,1.69,19.72,19.72,0,0,1,6,4.93l10.17-9.2a26.16,26.16,0,0,0-10.29-7.95,37.25,37.25,0,0,0-26.34-.57,29.74,29.74,0,0,0-9.85,6.06,27.48,27.48,0,0,0-6.54,9.32,31.23,31.23,0,0,0,0,23.72,27.58,27.58,0,0,0,6.54,9.32,29.55,29.55,0,0,0,9.85,6.05,34.47,34.47,0,0,0,12.34,2.14,34.09,34.09,0,0,0,14-2.74,26.53,26.53,0,0,0,10.29-8l-10.17-9.2a19.28,19.28,0,0,1-6,5,15.72,15.72,0,0,1-7.26,1.7,17.53,17.53,0,0,1-6.38-1.13,13.85,13.85,0,0,1-5-3.27,15.4,15.4,0,0,1-3.23-5.13,19.29,19.29,0,0,1,0-13.23A15.35,15.35,0,0,1,588.89,286.35Z"/><polygon class="cls-2" points="628.33 269.84 628.33 282.51 645.68 282.51 645.68 326.33 661.66 326.33 661.66 282.51 678.92 282.51 678.92 269.84 628.33 269.84"/></svg>