<svg xmlns="http://www.w3.org/2000/svg" viewBox="0 0 744 152.28"><defs><style>.cls-1{fill:#0b2785;}</style></defs><g id="Layer_2" data-name="Layer 2"><g id="Layer_1-2" data-name="Layer 1"><path class="cls-1" d="M152.28,57.51,142.12,47.34,123.48,66,86.31,28.8l18.63-18.63L94.78,0,76.14,18.64,57.5,0,47.34,10.17,66,28.8,28.8,66,10.16,47.34,0,57.51,18.64,76.14,0,94.78l10.16,10.16L28.8,86.31,66,123.48,47.34,142.12,57.5,152.28l18.64-18.63,18.64,18.63,10.16-10.16L86.31,123.48l37.17-37.17,18.64,18.63,10.16-10.16L133.65,76.14ZM76.14,113.32,39,76.14,76.14,39l37.18,37.17Z"/><path class="cls-1" d="M210.8,27.66a16,16,0,0,1,5.42-3.5,18.66,18.66,0,0,1,6.9-1.24,17.11,17.11,0,0,1,6.93,1.41A18.37,18.37,0,0,1,236,28.55l5.76-5.42a21.42,21.42,0,0,0-8.23-6,29.72,29.72,0,0,0-21-.2,24.57,24.57,0,0,0-8.17,5.18,23.77,23.77,0,0,0-5.42,7.83A24.73,24.73,0,0,0,197,39.81a24.78,24.78,0,0,0,1.92,9.89,24.08,24.08,0,0,0,13.52,13,29.63,29.63,0,0,0,21.08-.24,21.6,21.6,0,0,0,8.23-6L236,51a17.87,17.87,0,0,1-5.91,4.29,17.11,17.11,0,0,1-6.93,1.41,18.46,18.46,0,0,1-6.9-1.24A16,16,0,0,1,210.8,52a16.25,16.25,0,0,1-3.61-5.35,17.31,17.31,0,0,1-1.3-6.8,17.31,17.31,0,0,1,1.3-6.8A16.25,16.25,0,0,1,210.8,27.66Z"/><path class="cls-1" d="M291.32,22.07a24.24,24.24,0,0,0-8.2-5.15,30,30,0,0,0-20.67,0,25.13,25.13,0,0,0-8.23,5.18A23.25,23.25,0,0,0,248.79,30a24.83,24.83,0,0,0-1.92,9.85,24.62,24.62,0,0,0,1.92,9.78,23.57,23.57,0,0,0,5.43,7.86,24.77,24.77,0,0,0,8.27,5.22,29.91,29.91,0,0,0,20.63,0,23.83,23.83,0,0,0,13.59-13,24.83,24.83,0,0,0,1.92-9.85,25,25,0,0,0-1.92-9.88A23.4,23.4,0,0,0,291.32,22.07Zm-2.95,24.54A16.22,16.22,0,0,1,284.83,52a15.74,15.74,0,0,1-5.32,3.5,17.55,17.55,0,0,1-6.69,1.24,18.06,18.06,0,0,1-6.76-1.24,15.44,15.44,0,0,1-5.39-3.53,17.33,17.33,0,0,1,0-24.24,15.44,15.44,0,0,1,5.39-3.53,18.26,18.26,0,0,1,6.76-1.24,17.74,17.74,0,0,1,6.69,1.24,16.21,16.21,0,0,1,5.36,3.5A15.46,15.46,0,0,1,288.4,33a18,18,0,0,1,1.24,6.8A17.86,17.86,0,0,1,288.37,46.61Z"/><path class="cls-1" d="M338.82,47.77a15.36,15.36,0,0,0,9.51-14.89,16.62,16.62,0,0,0-2.47-9.2,15.73,15.73,0,0,0-7-5.87,26.86,26.86,0,0,0-10.95-2H308.1V63.84H317v-14h10.84c.64,0,1.25,0,1.86-.07l9.81,14.08h9.61L338.09,48.05C338.33,48,338.59,47.88,338.82,47.77Zm-2.47-21.93a8.69,8.69,0,0,1,3,7,8.79,8.79,0,0,1-3,7.07q-3,2.53-8.89,2.54H317V23.34h10.43Q333.37,23.34,336.35,25.84Z"/><polygon class="cls-1" points="392.12 48.38 365.63 15.78 358.28 15.78 358.28 63.84 367.14 63.84 367.14 31.25 393.57 63.84 400.91 63.84 400.91 15.78 392.12 15.78 392.12 48.38"/><polygon class="cls-1" points="422.81 43.11 446.01 43.11 446.01 35.76 422.81 35.76 422.81 23.34 448.96 23.34 448.96 15.78 413.88 15.78 413.88 63.84 449.92 63.84 449.92 56.28 422.81 56.28 422.81 43.11"/><path class="cls-1" d="M490.6,47.77a15.37,15.37,0,0,0,9.5-14.89,16.62,16.62,0,0,0-2.47-9.2,15.7,15.7,0,0,0-7-5.87,26.93,26.93,0,0,0-11-2H459.88V63.84h8.92v-14h10.85c.64,0,1.24,0,1.85-.07l9.82,14.08h9.61L489.86,48.05C490.1,48,490.36,47.88,490.6,47.77Zm-2.47-21.93a8.69,8.69,0,0,1,3,7,8.79,8.79,0,0,1-3,7.07q-3,2.53-8.89,2.54H468.8V23.34h10.44Q485.14,23.34,488.13,25.84Z"/><path class="cls-1" d="M538.75,40.12a26.28,26.28,0,0,0-5.56-2.4q-3-.93-6.11-1.62t-5.59-1.44a10.89,10.89,0,0,1-4-2.09A4.45,4.45,0,0,1,515.89,29,5.46,5.46,0,0,1,517,25.77a7.29,7.29,0,0,1,3.39-2.37,17.1,17.1,0,0,1,6-.89,25.22,25.22,0,0,1,6.59.93,26.64,26.64,0,0,1,6.65,2.85l2.82-6.94A25,25,0,0,0,535,16.2a33.89,33.89,0,0,0-8.58-1.1,26.4,26.4,0,0,0-10.89,2,14.5,14.5,0,0,0-6.38,5.22A13,13,0,0,0,507,29.44a11.74,11.74,0,0,0,1.54,6.32,11.64,11.64,0,0,0,4.09,4,27.51,27.51,0,0,0,5.59,2.43c2,.65,4.07,1.18,6.11,1.62s3.89.91,5.56,1.44A11.56,11.56,0,0,1,534,47.33a4.38,4.38,0,0,1,1.58,3.53,5,5,0,0,1-1.1,3.19,7.26,7.26,0,0,1-3.43,2.24,19,19,0,0,1-6.11.82,25.75,25.75,0,0,1-8.71-1.51,25,25,0,0,1-7.14-3.78L506,58.76a24.48,24.48,0,0,0,8.2,4.15A35.67,35.67,0,0,0,525,64.52a26.65,26.65,0,0,0,10.92-1.95,14.51,14.51,0,0,0,6.42-5.22,12.93,12.93,0,0,0,2.09-7.11A11.44,11.44,0,0,0,542.84,44,11.79,11.79,0,0,0,538.75,40.12Z"/><polygon class="cls-1" points="547.06 23.34 562.98 23.34 562.98 63.84 571.91 63.84 571.91 23.34 587.83 23.34 587.83 15.78 547.06 15.78 547.06 23.34"/><path class="cls-1" d="M635.57,22.07a24.15,24.15,0,0,0-8.2-5.15,30,30,0,0,0-20.66,0,25.17,25.17,0,0,0-8.24,5.18A23.37,23.37,0,0,0,593.05,30a24.83,24.83,0,0,0-1.92,9.85,24.62,24.62,0,0,0,1.92,9.78,23.69,23.69,0,0,0,5.42,7.86,24.88,24.88,0,0,0,8.27,5.22,29.91,29.91,0,0,0,20.63,0,23.83,23.83,0,0,0,13.59-13,24.83,24.83,0,0,0,1.93-9.85A25.05,25.05,0,0,0,641,29.93,23.4,23.4,0,0,0,635.57,22.07Zm-3,24.54A16,16,0,0,1,629.09,52a15.84,15.84,0,0,1-5.32,3.5,17.6,17.6,0,0,1-6.7,1.24,18.1,18.1,0,0,1-6.76-1.24,15.44,15.44,0,0,1-5.39-3.53,17.33,17.33,0,0,1,0-24.24,15.44,15.44,0,0,1,5.39-3.53,18.3,18.3,0,0,1,6.76-1.24,17.79,17.79,0,0,1,6.7,1.24,16.17,16.17,0,0,1,5.35,3.5A15.63,15.63,0,0,1,632.66,33a18.24,18.24,0,0,1,1.23,6.8A17.67,17.67,0,0,1,632.62,46.61Z"/><polygon class="cls-1" points="686.2 48.38 659.7 15.78 652.36 15.78 652.36 63.84 661.21 63.84 661.21 31.25 687.64 63.84 694.99 63.84 694.99 15.78 686.2 15.78 686.2 48.38"/><polygon class="cls-1" points="716.89 56.28 716.89 43.11 740.09 43.11 740.09 35.76 716.89 35.76 716.89 23.34 743.04 23.34 743.04 15.78 707.96 15.78 707.96 63.84 744 63.84 744 56.28 716.89 56.28"/><path class="cls-1" d="M214.27,102.55a11.41,11.41,0,0,1,4.18-2.75,14.57,14.57,0,0,1,5.37-1,13.26,13.26,0,0,1,6.12,1.43,16.81,16.81,0,0,1,5.09,4.15l8.57-7.75a22.09,22.09,0,0,0-8.67-6.7,31.37,31.37,0,0,0-22.19-.47,24.92,24.92,0,0,0-8.3,5.1,23.11,23.11,0,0,0-5.5,7.85,26.31,26.31,0,0,0,0,20,23.25,23.25,0,0,0,5.5,7.86,25.06,25.06,0,0,0,8.3,5.09,29.16,29.16,0,0,0,10.4,1.81,28.74,28.74,0,0,0,11.79-2.32,22.34,22.34,0,0,0,8.67-6.73L235,120.39a16.36,16.36,0,0,1-5.09,4.22,13.26,13.26,0,0,1-6.12,1.43,14.57,14.57,0,0,1-5.37-1,11.41,11.41,0,0,1-4.18-2.75,12.76,12.76,0,0,1-2.72-4.32,16.16,16.16,0,0,1,0-11.14A12.76,12.76,0,0,1,214.27,102.55Z"/><path class="cls-1" d="M292.48,94.7a25.06,25.06,0,0,0-8.36-5.17,31.27,31.27,0,0,0-21.08,0,24.49,24.49,0,0,0-13.9,13,23.68,23.68,0,0,0-2,9.79,24.05,24.05,0,0,0,2,9.89,24.39,24.39,0,0,0,5.54,7.89,24.7,24.7,0,0,0,8.4,5.2,31,31,0,0,0,21,0,25.4,25.4,0,0,0,8.39-5.17,23.29,23.29,0,0,0,5.54-7.85,24.53,24.53,0,0,0,2-10,24,24,0,0,0-2-9.85A24.25,24.25,0,0,0,292.48,94.7Zm-7,23.35a13,13,0,0,1-2.72,4.28,11.54,11.54,0,0,1-4.08,2.75,13.84,13.84,0,0,1-10.13,0,12,12,0,0,1-4.11-2.75,12.43,12.43,0,0,1-2.72-4.28,17,17,0,0,1,0-11.22,12.43,12.43,0,0,1,2.72-4.28,12,12,0,0,1,4.11-2.75,13.84,13.84,0,0,1,10.13,0,11.54,11.54,0,0,1,4.08,2.75,13,13,0,0,1,2.72,4.28,16.39,16.39,0,0,1,0,11.22Z"/><polygon class="cls-1" points="339.18 113.99 318.24 88.65 307.16 88.65 307.16 136.23 320.28 136.23 320.28 110.87 341.29 136.23 352.37 136.23 352.37 88.65 339.18 88.65 339.18 113.99"/><polygon class="cls-1" points="393.97 113.99 373.03 88.65 361.95 88.65 361.95 136.23 375.07 136.23 375.07 110.87 396.08 136.23 407.16 136.23 407.16 88.65 393.97 88.65 393.97 113.99"/><polygon class="cls-1" points="430 117.06 451.14 117.06 451.14 107.07 430 107.07 430 99.12 454 99.12 454 88.65 416.74 88.65 416.74 136.23 454.88 136.23 454.88 125.76 430 125.76 430 117.06"/><path class="cls-1" d="M477.21,102.55a11.5,11.5,0,0,1,4.18-2.75,14.61,14.61,0,0,1,5.37-1,13.26,13.26,0,0,1,6.12,1.43,16.73,16.73,0,0,1,5.1,4.15l8.57-7.75a22.16,22.16,0,0,0-8.67-6.7,31.4,31.4,0,0,0-22.2-.47,25,25,0,0,0-8.29,5.1,23.14,23.14,0,0,0-5.51,7.85,26.31,26.31,0,0,0,0,20,23.28,23.28,0,0,0,5.51,7.86,25.12,25.12,0,0,0,8.29,5.09,29.16,29.16,0,0,0,10.4,1.81,28.79,28.79,0,0,0,11.8-2.32,22.42,22.42,0,0,0,8.67-6.73L498,120.39a16.28,16.28,0,0,1-5.1,4.22,13.26,13.26,0,0,1-6.12,1.43,14.61,14.61,0,0,1-5.37-1,11.5,11.5,0,0,1-4.18-2.75,13.08,13.08,0,0,1-2.72-4.32,16.32,16.32,0,0,1,0-11.14A13.08,13.08,0,0,1,477.21,102.55Z"/><polygon class="cls-1" points="510.44 88.65 510.44 99.32 525.05 99.32 525.05 136.23 538.51 136.23 538.51 99.32 553.06 99.32 553.06 88.65 510.44 88.65"/></g></g></svg>