<svg width="623" height="116" viewBox="0 0 623 116" fill="none" xmlns="http://www.w3.org/2000/svg">
<path d="M162.578 15.698H199.434V28.274H175.337V40.483H199.434V52.83H175.337V70.593H199.434V83.215H162.578V15.698Z" fill="#172349"/>
<path d="M204.182 33.277H216.948L229.564 62.744L242.152 33.277H254.854L233.603 83.215H225.479L204.182 33.277Z" fill="#172349"/>
<path d="M308.943 61.872H268.69C269.271 65.422 270.824 68.245 273.349 70.34C275.873 72.437 279.094 73.485 283.011 73.485C287.693 73.485 291.716 71.848 295.082 68.574L305.639 73.531C303.007 77.264 299.856 80.026 296.184 81.815C292.512 83.606 288.152 84.501 283.103 84.501C275.27 84.501 268.89 82.03 263.963 77.089C259.036 72.148 256.573 65.958 256.573 58.523C256.573 50.904 259.029 44.578 263.94 39.544C268.851 34.511 275.009 31.994 282.414 31.994C290.278 31.994 296.673 34.511 301.6 39.544C306.526 44.578 308.99 51.225 308.99 59.487L308.943 61.872ZM296.412 52.004C295.584 49.22 293.952 46.955 291.515 45.211C289.078 43.467 286.251 42.595 283.033 42.595C279.539 42.595 276.474 43.574 273.838 45.533C272.183 46.757 270.65 48.914 269.24 52.005H296.412V52.004Z" fill="#172349"/>
<path d="M318.419 33.277H330.949V38.395C333.79 35.999 336.365 34.333 338.672 33.397C340.978 32.46 343.339 31.992 345.753 31.992C350.703 31.992 354.904 33.721 358.357 37.179C361.259 40.117 362.711 44.462 362.711 50.214V83.215H350.318V61.347C350.318 55.387 350.05 51.43 349.516 49.473C348.982 47.516 348.051 46.027 346.723 45.003C345.395 43.979 343.755 43.467 341.801 43.467C339.267 43.467 337.092 44.316 335.276 46.011C333.46 47.708 332.2 50.053 331.498 53.049C331.132 54.609 330.949 57.986 330.949 63.18V83.215H318.419V33.277Z" fill="#172349"/>
<path d="M376.127 14.872H388.657V33.277H396.093V44.063H388.657V83.214H376.127V44.063H369.701V33.277H376.127V14.872Z" fill="#172349"/>
<path d="M403.099 14H415.629V83.215H403.099V14Z" fill="#172349"/>
<path d="M426.895 14H439.425V83.215H426.895V14Z" fill="#172349"/>
<path d="M501.251 61.872H460.998C461.579 65.422 463.132 68.245 465.657 70.34C468.18 72.437 471.401 73.485 475.318 73.485C480 73.485 484.023 71.848 487.389 68.574L497.946 73.531C495.314 77.264 492.163 80.026 488.491 81.815C484.819 83.606 480.459 84.501 475.41 84.501C467.576 84.501 461.196 82.03 456.27 77.089C451.343 72.148 448.88 65.958 448.88 58.523C448.88 50.904 451.336 44.578 456.246 39.544C461.158 34.511 467.315 31.994 474.721 31.994C482.584 31.994 488.98 34.511 493.907 39.544C498.833 44.578 501.297 51.225 501.297 59.487L501.251 61.872ZM488.721 52.004C487.894 49.22 486.261 46.955 483.825 45.211C481.387 43.467 478.56 42.595 475.342 42.595C471.849 42.595 468.783 43.574 466.148 45.533C464.493 46.757 462.96 48.914 461.55 52.005H488.721V52.004Z" fill="#172349"/>
<path d="M547.46 33.277H559.944V76.054C559.944 84.499 558.246 90.71 554.849 94.689C550.289 100.074 543.42 102.767 534.241 102.767C529.345 102.767 525.229 102.155 521.894 100.931C518.558 99.706 515.744 97.909 513.449 95.538C511.154 93.166 509.456 90.282 508.354 86.886H522.169C523.393 88.293 524.969 89.357 526.897 90.075C528.825 90.793 531.104 91.154 533.736 91.154C537.101 91.154 539.809 90.633 541.86 89.593C543.91 88.552 545.355 87.206 546.198 85.554C547.039 83.902 547.46 81.056 547.46 77.017C545.257 79.22 542.946 80.803 540.529 81.768C538.111 82.731 535.373 83.213 532.313 83.213C525.612 83.213 519.951 80.796 515.331 75.961C510.71 71.127 508.4 65.007 508.4 57.602C508.4 49.677 510.847 43.312 515.744 38.508C520.181 34.163 525.474 31.99 531.625 31.99C534.501 31.99 537.217 32.518 539.772 33.573C542.326 34.629 544.889 36.365 547.46 38.782V33.277ZM534.471 43.696C530.524 43.696 527.265 45.02 524.695 47.666C522.125 50.313 520.84 53.641 520.84 57.649C520.84 61.811 522.155 65.222 524.787 67.884C527.418 70.546 530.723 71.877 534.701 71.877C538.587 71.877 541.793 70.577 544.316 67.976C546.841 65.375 548.103 61.963 548.103 57.741C548.103 53.58 546.832 50.199 544.293 47.597C541.753 44.997 538.479 43.696 534.471 43.696Z" fill="#172349"/>
<path d="M622.191 61.872H581.938C582.519 65.422 584.072 68.245 586.597 70.34C589.12 72.437 592.341 73.485 596.258 73.485C600.94 73.485 604.963 71.848 608.329 68.574L618.886 73.531C616.254 77.264 613.103 80.026 609.431 81.815C605.759 83.606 601.399 84.501 596.35 84.501C588.516 84.501 582.136 82.03 577.21 77.089C572.283 72.148 569.82 65.958 569.82 58.523C569.82 50.904 572.276 44.578 577.186 39.544C582.098 34.511 588.255 31.994 595.661 31.994C603.524 31.994 609.92 34.511 614.847 39.544C619.773 44.578 622.237 51.225 622.237 59.487L622.191 61.872ZM609.66 52.004C608.833 49.22 607.2 46.955 604.764 45.211C602.326 43.467 599.499 42.595 596.281 42.595C592.788 42.595 589.722 43.574 587.087 45.533C585.432 46.757 583.899 48.914 582.489 52.005H609.66V52.004Z" fill="#172349"/>
<path d="M115.916 68.1736L99.7484 52.0065L70.6166 81.1383L86.7838 97.3055L115.916 68.1736Z" fill="#172349"/>
<path d="M63.889 16.167L47.723 0L0 47.724L49.584 97.308L65.75 81.142L32.332 47.724L63.889 16.167Z" fill="#172349"/>
<path d="M52.0087 99.7365L68.1744 115.902L84.3401 99.7365L68.1744 83.5708L52.0087 99.7365Z" fill="#DD543A"/>
<path d="M77.115 40.652H59.235V58.529H77.115V40.652Z" fill="#F6AB00"/>
</svg>
