<svg width="171" height="109" viewBox="0 0 171 109" fill="none" xmlns="http://www.w3.org/2000/svg">
<path d="M0.740845 76.6192H14.1682V81.2006H5.38945V85.6486H14.1682V90.1465H5.38945V96.6177H14.1682V101.216H0.740845V76.6192Z" fill="#172349"/>
<path d="M16.1243 83.0233H20.7757L25.3716 93.7588L29.9578 83.0233H34.5852L26.8428 101.217H23.8832L16.1243 83.0233Z" fill="#172349"/>
<path d="M54.5407 93.441H39.8756C40.0873 94.7348 40.653 95.7629 41.5729 96.5266C42.4927 97.2896 43.666 97.6718 45.0927 97.6718C46.7982 97.6718 48.264 97.0759 49.4907 95.8828L53.3365 97.6889C52.3776 99.0492 51.2297 100.055 49.892 100.707C48.5544 101.359 46.966 101.686 45.1263 101.686C42.2722 101.686 39.9475 100.786 38.153 98.9848C36.3578 97.1848 35.4606 94.93 35.4606 92.2212C35.4606 89.4451 36.3551 87.1404 38.1441 85.3061C39.9332 83.4726 42.177 82.5554 44.8749 82.5554C47.74 82.5554 50.0694 83.4726 51.8646 85.3061C53.6591 87.1404 54.5571 89.5623 54.5571 92.5718L54.5407 93.441ZM49.9756 89.8458C49.6742 88.8321 49.079 88.0061 48.192 87.3712C47.3044 86.7356 46.2742 86.4178 45.1016 86.4178C43.829 86.4178 42.7119 86.7746 41.7516 87.4883C41.1482 87.9342 40.59 88.7205 40.0763 89.8458H49.9756Z" fill="#172349"/>
<path d="M58.2125 83.0233H62.7776V84.8883C63.8125 84.0157 64.7502 83.4082 65.5906 83.0671C66.431 82.726 67.2913 82.5554 68.1707 82.5554C69.9741 82.5554 71.5043 83.1856 72.7625 84.4452C73.82 85.5157 74.3488 87.0986 74.3488 89.1944V101.218H69.8337V93.2506C69.8337 91.0794 69.7365 89.6376 69.5419 88.9246C69.3474 88.2123 69.0077 87.6698 68.5241 87.2965C68.0399 86.9232 67.4426 86.7369 66.731 86.7369C65.8077 86.7369 65.0153 87.0458 64.3536 87.6643C63.692 88.2821 63.2331 89.1369 62.9769 90.228C62.8433 90.7958 62.7769 92.0266 62.7769 93.9198V101.218H58.2119V83.0233H58.2125Z" fill="#172349"/>
<path d="M79.4495 76.3178H84.0145V83.0232H86.7234V86.9527H84.0145V101.216H79.4495V86.9527H77.1084V83.0232H79.4495V76.3178Z" fill="#172349"/>
<path d="M89.4679 76H94.033V101.216H89.4679V76Z" fill="#172349"/>
<path d="M98.3322 76H102.897V101.216H98.3322V76Z" fill="#172349"/>
<path d="M125.631 93.441H110.966C111.177 94.7348 111.743 95.7629 112.663 96.5266C113.583 97.2896 114.756 97.6718 116.183 97.6718C117.888 97.6718 119.354 97.0759 120.581 95.8828L124.427 97.6889C123.468 99.0492 122.32 100.055 120.982 100.707C119.645 101.359 118.056 101.686 116.216 101.686C113.362 101.686 111.038 100.786 109.243 98.9848C107.448 97.1848 106.551 94.93 106.551 92.2212C106.551 89.4451 107.445 87.1404 109.234 85.3061C111.023 83.4726 113.267 82.5554 115.965 82.5554C118.83 82.5554 121.16 83.4726 122.955 85.3061C124.749 87.1404 125.647 89.5623 125.647 92.5718L125.631 93.441ZM121.066 89.8458C120.764 88.8321 120.169 88.0061 119.282 87.3712C118.395 86.7356 117.364 86.4178 116.192 86.4178C114.919 86.4178 113.802 86.7746 112.842 87.4883C112.238 87.9342 111.68 88.7205 111.166 89.8458H121.066Z" fill="#172349"/>
<path d="M142.688 83.0233H147.237V98.6081C147.237 101.685 146.618 103.948 145.381 105.397C143.72 107.359 141.217 108.34 137.873 108.34C136.089 108.34 134.59 108.117 133.375 107.671C132.16 107.225 131.134 106.57 130.298 105.706C129.462 104.842 128.843 103.792 128.442 102.554H133.475C133.921 103.066 134.495 103.454 135.198 103.716C135.9 103.978 136.731 104.109 137.69 104.109C138.916 104.109 139.902 103.919 140.649 103.54C141.396 103.161 141.923 102.67 142.229 102.069C142.536 101.467 142.689 100.43 142.689 98.9588C141.886 99.7615 141.044 100.339 140.164 100.689C139.283 101.041 138.285 101.216 137.171 101.216C134.729 101.216 132.666 100.336 130.984 98.5746C129.3 96.8136 128.458 94.5842 128.458 91.8855C128.458 88.9986 129.35 86.6794 131.134 84.9294C132.75 83.3465 134.679 82.5547 136.919 82.5547C137.967 82.5547 138.956 82.7472 139.887 83.1315C140.818 83.5171 141.751 84.1493 142.688 85.0294L142.688 83.0233ZM137.956 86.8191C136.518 86.8191 135.331 87.3013 134.394 88.2657C133.458 89.2294 132.99 90.4424 132.99 91.9027C132.99 93.4191 133.469 94.6616 134.428 95.6314C135.386 96.6013 136.59 97.0862 138.04 97.0862C139.455 97.0862 140.623 96.6129 141.543 95.665C142.463 94.7177 142.923 93.4746 142.923 91.9362C142.923 90.4205 142.459 89.1883 141.535 88.2404C140.609 87.2938 139.416 86.8191 137.956 86.8191Z" fill="#172349"/>
<path d="M170.134 93.441H155.469C155.681 94.7348 156.246 95.7629 157.166 96.5266C158.086 97.2896 159.259 97.6718 160.686 97.6718C162.392 97.6718 163.857 97.0759 165.084 95.8828L168.93 97.6889C167.971 99.0492 166.823 100.055 165.485 100.707C164.148 101.359 162.559 101.686 160.72 101.686C157.866 101.686 155.541 100.786 153.746 98.9848C151.951 97.1848 151.054 94.93 151.054 92.2212C151.054 89.4451 151.949 87.1404 153.738 85.3061C155.527 83.4726 157.77 82.5554 160.468 82.5554C163.333 82.5554 165.663 83.4726 167.458 85.3061C169.253 87.1404 170.151 89.5623 170.151 92.5718L170.134 93.441ZM165.569 89.8458C165.268 88.8321 164.672 88.0061 163.785 87.3712C162.898 86.7356 161.868 86.4178 160.695 86.4178C159.422 86.4178 158.305 86.7746 157.345 87.4883C156.742 87.9342 156.183 88.7205 155.67 89.8458H165.569Z" fill="#172349"/>
<path d="M112.798 32.756L105.036 24.9924L91.0463 38.9798L98.8088 46.7434L112.798 32.756Z" fill="#172349"/>
<path d="M87.822 7.76186L80.0601 0L57.1471 22.9136L80.954 46.7205L88.7159 38.9587L72.6702 22.9136L87.822 7.76186Z" fill="#172349"/>
<path d="M82.1188 47.8887L89.8804 55.6504L97.6421 47.8887L89.8804 40.1271L82.1188 47.8887Z" fill="#DD543A"/>
<path d="M94.1726 19.5183H85.5877V28.1014H94.1726V19.5183Z" fill="#F6AB00"/>
</svg>
