<svg xmlns="http://www.w3.org/2000/svg" viewBox="0 0 444.92 444.92"><defs><style>.cls-1{fill:#0b2785;}</style></defs><g id="Layer_2" data-name="Layer 2"><g id="Layer_1-2" data-name="Layer 1"><path class="cls-1" d="M444.92,168l-29.7-29.7-54.45,54.45L252.15,84.15,306.6,29.7,276.91,0,222.46,54.45,168,0,138.31,29.7l54.45,54.45L84.15,192.76,29.7,138.31,0,168l54.45,54.45L0,276.91l29.7,29.7,54.45-54.45L192.76,360.77l-54.45,54.45L168,444.92l54.46-54.45,54.45,54.45,29.69-29.7-54.45-54.45L360.77,252.16l54.45,54.45,29.7-29.7-54.45-54.45ZM222.46,331.07,113.85,222.46,222.46,113.85,331.07,222.46Z"/></g></g></svg>