<svg xmlns="http://www.w3.org/2000/svg" viewBox="0 0 583.87 375.84"><defs><style>.cls-1{fill:#0b2785;}</style></defs><g id="Layer_2" data-name="Layer 2"><g id="Layer_1-2" data-name="Layer 1"><path class="cls-1" d="M14.76,250.06a17.24,17.24,0,0,1,5.79-3.74A19.85,19.85,0,0,1,27.92,245a18.37,18.37,0,0,1,7.4,1.5,19.68,19.68,0,0,1,6.3,4.51l6.15-5.79A22.75,22.75,0,0,0,39,238.81a29.71,29.71,0,0,0-11.5-2.16,29.91,29.91,0,0,0-10.92,1.94,26.29,26.29,0,0,0-8.72,5.53,25.58,25.58,0,0,0-5.79,8.35,28.2,28.2,0,0,0,0,21.11,25.66,25.66,0,0,0,14.44,13.88A29.89,29.89,0,0,0,27.4,289.4,29.4,29.4,0,0,0,39,287.2a23,23,0,0,0,8.79-6.44L41.62,275a19,19,0,0,1-6.3,4.58,18.37,18.37,0,0,1-7.4,1.5,19.85,19.85,0,0,1-7.37-1.32A17.09,17.09,0,0,1,14.76,276a17.36,17.36,0,0,1-3.84-5.71,19.63,19.63,0,0,1,0-14.51A17.36,17.36,0,0,1,14.76,250.06Z"/><path class="cls-1" d="M100.71,244.09a26,26,0,0,0-8.76-5.5,30.48,30.48,0,0,0-11-1.94,30,30,0,0,0-11.06,2,26.73,26.73,0,0,0-8.79,5.53,24.68,24.68,0,0,0-5.79,8.35,27.69,27.69,0,0,0,0,21,25.13,25.13,0,0,0,5.79,8.39,26.42,26.42,0,0,0,8.82,5.56,31.9,31.9,0,0,0,22,0,25.4,25.4,0,0,0,14.51-13.92A26.59,26.59,0,0,0,108.51,263a26.94,26.94,0,0,0-2.05-10.56A25.21,25.21,0,0,0,100.71,244.09Zm-3.15,26.19A17.36,17.36,0,0,1,93.78,276a16.72,16.72,0,0,1-5.68,3.74A18.83,18.83,0,0,1,81,281.05a19.47,19.47,0,0,1-7.22-1.32A16.56,16.56,0,0,1,68,276,18.15,18.15,0,0,1,62.79,263a18.16,18.16,0,0,1,1.39-7.22A18.47,18.47,0,0,1,68,250.09a16.56,16.56,0,0,1,5.75-3.77A19.47,19.47,0,0,1,81,245a18.83,18.83,0,0,1,7.14,1.32,17.34,17.34,0,0,1,5.72,3.74,16.45,16.45,0,0,1,3.77,5.71A19.38,19.38,0,0,1,98.91,263,19,19,0,0,1,97.56,270.28Z"/><path class="cls-1" d="M151.41,271.52a16.37,16.37,0,0,0,10.14-15.89,17.74,17.74,0,0,0-2.63-9.82,16.75,16.75,0,0,0-7.51-6.27,28.74,28.74,0,0,0-11.69-2.16h-21.1v51.29h9.53V273.72h11.57c.69,0,1.33-.05,2-.08l10.48,15h10.25l-11.81-16.85C150.88,271.72,151.16,271.64,151.41,271.52Zm-2.64-23.4a9.27,9.27,0,0,1,3.19,7.51,9.37,9.37,0,0,1-3.19,7.54q-3.2,2.71-9.49,2.71H128.15V245.44h11.13Q145.58,245.44,148.77,248.12Z"/><polygon class="cls-1" points="208.3 272.17 180.02 237.38 172.18 237.38 172.18 288.67 181.63 288.67 181.63 253.89 209.84 288.67 217.68 288.67 217.68 237.38 208.3 237.38 208.3 272.17"/><polygon class="cls-1" points="241.05 266.54 265.81 266.54 265.81 258.7 241.05 258.7 241.05 245.44 268.96 245.44 268.96 237.38 231.52 237.38 231.52 288.67 269.99 288.67 269.99 280.61 241.05 280.61 241.05 266.54"/><path class="cls-1" d="M313.4,271.52a16.4,16.4,0,0,0,10.15-15.89,17.75,17.75,0,0,0-2.64-9.82,16.69,16.69,0,0,0-7.51-6.27,28.71,28.71,0,0,0-11.69-2.16h-21.1v51.29h9.53V273.72h11.57c.69,0,1.33-.05,2-.08l10.47,15h10.26l-11.81-16.85C312.87,271.72,313.15,271.64,313.4,271.52Zm-2.64-23.4a9.24,9.24,0,0,1,3.19,7.51,9.34,9.34,0,0,1-3.19,7.54q-3.18,2.71-9.49,2.71H290.14V245.44h11.13Q307.57,245.44,310.76,248.12Z"/><path class="cls-1" d="M364.8,263.36a28.41,28.41,0,0,0-5.94-2.57q-3.23-1-6.52-1.72t-6-1.54a11.73,11.73,0,0,1-4.32-2.23,4.76,4.76,0,0,1-1.65-3.78,5.86,5.86,0,0,1,1.13-3.48,7.77,7.77,0,0,1,3.63-2.53,18.22,18.22,0,0,1,6.38-.95,26.94,26.94,0,0,1,7,1,28.28,28.28,0,0,1,7.11,3l3-7.4a26.59,26.59,0,0,0-7.91-3.37,36.59,36.59,0,0,0-9.16-1.17A28.07,28.07,0,0,0,340,238.74a15.36,15.36,0,0,0-6.82,5.57A13.87,13.87,0,0,0,331,252a12.51,12.51,0,0,0,1.65,6.74,12.33,12.33,0,0,0,4.36,4.22,29.41,29.41,0,0,0,6,2.6q3.26,1,6.52,1.72c2.17.46,4.15,1,5.93,1.54a12.45,12.45,0,0,1,4.36,2.27,4.71,4.71,0,0,1,1.69,3.77,5.36,5.36,0,0,1-1.18,3.41,7.81,7.81,0,0,1-3.66,2.38,19.88,19.88,0,0,1-6.52.88,27.66,27.66,0,0,1-9.3-1.61,27,27,0,0,1-7.63-4l-3.29,7.4a26,26,0,0,0,8.75,4.43,37.83,37.83,0,0,0,11.47,1.72,28.21,28.21,0,0,0,11.65-2.09,15.33,15.33,0,0,0,6.85-5.56,13.78,13.78,0,0,0,2.24-7.59,12.2,12.2,0,0,0-1.65-6.63A12.62,12.62,0,0,0,364.8,263.36Z"/><polygon class="cls-1" points="373.66 245.44 390.66 245.44 390.66 288.67 400.19 288.67 400.19 245.44 417.18 245.44 417.18 237.38 373.66 237.38 373.66 245.44"/><path class="cls-1" d="M468.14,244.09a26,26,0,0,0-8.76-5.5,30.48,30.48,0,0,0-11-1.94,30.08,30.08,0,0,0-11.06,2,26.73,26.73,0,0,0-8.79,5.53,25,25,0,0,0-5.79,8.35,27.81,27.81,0,0,0,0,21,25.43,25.43,0,0,0,5.79,8.39,26.36,26.36,0,0,0,8.83,5.56,30.13,30.13,0,0,0,11,2,30.48,30.48,0,0,0,11-1.94,25.4,25.4,0,0,0,14.51-13.92A26.41,26.41,0,0,0,475.94,263a26.76,26.76,0,0,0-2.05-10.56A25.07,25.07,0,0,0,468.14,244.09ZM465,270.28a17.33,17.33,0,0,1-3.77,5.71,16.92,16.92,0,0,1-5.68,3.74,18.91,18.91,0,0,1-7.15,1.32,19.38,19.38,0,0,1-7.21-1.32,16.47,16.47,0,0,1-5.75-3.77,18,18,0,0,1-3.81-5.75,18.47,18.47,0,0,1,3.81-20.12,16.47,16.47,0,0,1,5.75-3.77,19.38,19.38,0,0,1,7.21-1.32,18.91,18.91,0,0,1,7.15,1.32,17.3,17.3,0,0,1,5.71,3.74,16.47,16.47,0,0,1,3.78,5.71,19.58,19.58,0,0,1,1.31,7.26A19,19,0,0,1,465,270.28Z"/><polygon class="cls-1" points="522.17 272.17 493.89 237.38 486.05 237.38 486.05 288.67 495.5 288.67 495.5 253.89 523.71 288.67 531.55 288.67 531.55 237.38 522.17 237.38 522.17 272.17"/><polygon class="cls-1" points="554.92 280.61 554.92 266.54 579.69 266.54 579.69 258.7 554.92 258.7 554.92 245.44 582.84 245.44 582.84 237.38 545.4 237.38 545.4 288.67 583.87 288.67 583.87 280.61 554.92 280.61"/><path class="cls-1" d="M118.75,338.24a12.49,12.49,0,0,1,4.53-3,16,16,0,0,1,5.83-1,14.44,14.44,0,0,1,6.65,1.55,18.11,18.11,0,0,1,5.53,4.5l9.3-8.41a24,24,0,0,0-9.41-7.27,34.05,34.05,0,0,0-24.09-.52,27.16,27.16,0,0,0-9,5.54,25.19,25.19,0,0,0-6,8.52,28.58,28.58,0,0,0,0,21.7,25.29,25.29,0,0,0,6,8.52,27.13,27.13,0,0,0,9,5.53,33.71,33.71,0,0,0,24.09-.55,24.33,24.33,0,0,0,9.41-7.31l-9.3-8.41a17.84,17.84,0,0,1-5.53,4.58,14.44,14.44,0,0,1-6.65,1.55,16,16,0,0,1-5.83-1,12.36,12.36,0,0,1-4.53-3,13.87,13.87,0,0,1-3-4.68,17.64,17.64,0,0,1,0-12.1A14,14,0,0,1,118.75,338.24Z"/><path class="cls-1" d="M203.64,329.72a27.19,27.19,0,0,0-9.07-5.61,33.88,33.88,0,0,0-22.88,0,26.67,26.67,0,0,0-15.09,14.17,25.77,25.77,0,0,0-2.18,10.62,26.2,26.2,0,0,0,2.18,10.74,26.48,26.48,0,0,0,15.13,14.21,33.76,33.76,0,0,0,22.84,0,27.57,27.57,0,0,0,9.11-5.61,25.31,25.31,0,0,0,6-8.53,26.68,26.68,0,0,0,2.14-10.81,26,26,0,0,0-2.17-10.7A26.43,26.43,0,0,0,203.64,329.72ZM196,355.07a14.18,14.18,0,0,1-3,4.64,12.63,12.63,0,0,1-4.42,3,15.06,15.06,0,0,1-11,0,13,13,0,0,1-4.46-3,13.24,13.24,0,0,1-2.95-4.64,18.35,18.35,0,0,1,0-12.18,13.38,13.38,0,0,1,2.95-4.65,13.12,13.12,0,0,1,4.46-3,15.2,15.2,0,0,1,11,0,12.77,12.77,0,0,1,4.42,3,14.33,14.33,0,0,1,3,4.65,17.87,17.87,0,0,1,0,12.18Z"/><polygon class="cls-1" points="254.34 350.66 231.61 323.15 219.58 323.15 219.58 374.81 233.82 374.81 233.82 347.28 256.62 374.81 268.65 374.81 268.65 323.15 254.34 323.15 254.34 350.66"/><polygon class="cls-1" points="313.81 350.66 291.08 323.15 279.06 323.15 279.06 374.81 293.3 374.81 293.3 347.28 316.1 374.81 328.13 374.81 328.13 323.15 313.81 323.15 313.81 350.66"/><polygon class="cls-1" points="352.92 354 375.87 354 375.87 343.15 352.92 343.15 352.92 334.51 378.97 334.51 378.97 323.15 338.53 323.15 338.53 374.81 379.93 374.81 379.93 363.44 352.92 363.44 352.92 354"/><path class="cls-1" d="M404.17,338.24a12.53,12.53,0,0,1,4.54-3,15.91,15.91,0,0,1,5.83-1,14.4,14.4,0,0,1,6.64,1.55,18.11,18.11,0,0,1,5.53,4.5l9.3-8.41a24,24,0,0,0-9.41-7.27,34.05,34.05,0,0,0-24.09-.52,27,27,0,0,0-9,5.54,25.08,25.08,0,0,0-6,8.52,28.58,28.58,0,0,0,0,21.7,25.18,25.18,0,0,0,6,8.52,27,27,0,0,0,9,5.53,33.71,33.71,0,0,0,24.09-.55A24.33,24.33,0,0,0,436,366l-9.3-8.41a17.84,17.84,0,0,1-5.53,4.58,14.4,14.4,0,0,1-6.64,1.55,15.91,15.91,0,0,1-5.83-1,12.4,12.4,0,0,1-4.54-3,13.87,13.87,0,0,1-2.95-4.68,17.64,17.64,0,0,1,0-12.1A14,14,0,0,1,404.17,338.24Z"/><polygon class="cls-1" points="440.48 323.15 440.48 334.74 456.34 334.74 456.34 374.81 470.95 374.81 470.95 334.74 486.74 334.74 486.74 323.15 440.48 323.15"/><path class="cls-1" d="M380.47,66.87,368.65,55.05,347,76.72,303.75,33.49l21.67-21.67L313.6,0,291.93,21.67,270.26,0,258.44,11.82l21.67,21.67L236.88,76.72,215.21,55.05,203.39,66.87l21.67,21.67-21.67,21.67L215.21,122l21.67-21.67,43.23,43.23-21.67,21.67,11.82,11.82,21.67-21.67,21.67,21.67,11.82-11.82-21.67-21.67L347,100.36,368.65,122l11.82-11.82L358.8,88.54Zm-88.54,64.9L248.7,88.54l43.23-43.23,43.23,43.23Z"/></g></g></svg>