<svg width="156" height="32" viewBox="0 0 156 32" fill="none" xmlns="http://www.w3.org/2000/svg">
<g clip-path="url(#clip0_155_136)">
<path d="M10.9176 1.08758L9.83003 2.19608L11.7542 4.12026L13.6993 6.06536L9.83003 9.93464L5.96075 13.8039L4.03656 11.8797L2.09146 9.93464L1.00388 11.0431L-0.104614 12.1307L1.84048 14.0758L3.76467 16L1.84048 17.9451L-0.104614 19.8693L1.00388 20.9569L2.09146 22.0654L4.03656 20.1203L5.96075 18.1961L9.83003 22.0654L13.6993 25.9346L11.7542 27.8797L9.83003 29.8039L10.9176 30.9124L12.0261 32L13.9503 30.0758L15.8954 28.1307L17.7359 29.9712C18.7398 30.9752 19.6601 31.7908 19.7647 31.7908C19.8692 31.7908 20.413 31.3516 20.9568 30.8078L21.9607 29.8248L20.0366 27.8797L18.0915 25.9346L21.9607 22.0654L25.83 18.1961L27.7542 20.1203L29.6993 22.0654L30.7869 20.9569L31.8954 19.8693L29.9503 17.9242L28.0261 16L29.9503 14.0549L31.8954 12.1307L30.7869 11.0431L29.6993 9.93464L27.7542 11.8797L25.83 13.8039L21.9607 9.93464L18.0915 6.06536L20.0366 4.12026L21.9607 2.17516L20.9568 1.19216C20.413 0.648365 19.8692 0.20915 19.7647 0.20915C19.6601 0.20915 18.7398 1.02484 17.7359 2.02876L15.8954 3.86928L13.9503 1.92418L12.0261 0L10.9176 1.08758ZM19.8274 12.1935L23.6339 16L19.7647 19.8693L15.8954 23.7386L12.0261 19.8693L8.15682 16L11.9634 12.1935C14.0758 10.081 15.8326 8.36601 15.8954 8.36601C15.9581 8.36601 17.715 10.081 19.8274 12.1935Z" fill="white"/>
<path d="M45.4483 3.34639C42.2483 3.99475 40.5124 6.92286 41.4535 10.0601C41.7673 11.1268 42.9176 12.4444 43.9843 12.9882C45.6575 13.8457 48.0627 13.7202 49.5895 12.6954C50.4679 12.0889 50.5725 11.6497 49.9032 11.2104C49.4013 10.8967 49.3176 10.8967 48.3973 11.3987C47.1843 12.047 46.1594 12.068 44.9673 11.4405C42.1856 10.0392 42.6248 6.0026 45.6575 5.01959C46.6614 4.70587 47.6235 4.87319 48.6274 5.56338L49.4222 6.08626L50.0078 5.52155C50.5725 4.97776 50.5934 4.91502 50.2797 4.55946C49.4013 3.59737 47.1006 3.03266 45.4483 3.34639Z" fill="white"/>
<path d="M55.9059 3.34632C54.0444 3.72279 52.8313 4.64305 52.0993 6.27442C50.8235 9.07704 52.3712 12.4444 55.2993 13.281C58.5411 14.2221 61.6784 12.5698 62.3059 9.579C62.6196 8.13586 62.4104 6.94371 61.6157 5.60514C61.1137 4.74763 60.7163 4.39207 59.817 3.93194C58.5202 3.30449 57.1817 3.09534 55.9059 3.34632ZM58.4784 5.20776C60.0679 5.93978 60.8836 7.59207 60.4444 9.24436C59.8588 11.4614 57.4536 12.5489 55.4248 11.5032C54.2954 10.9385 53.6889 9.9973 53.5843 8.65874C53.3542 5.93978 55.9895 4.07835 58.4784 5.20776Z" fill="white"/>
<path d="M108.779 3.36721C107.629 3.59728 106.959 4.01558 106.458 4.87309C105.328 6.6927 106.478 8.55414 109.072 9.09793C111.498 9.62081 112.356 10.2273 111.895 11.0849C111.561 11.7123 110.996 11.9215 109.637 11.9215C108.758 11.9215 108.131 11.7751 107.42 11.4195L106.437 10.9175L106.144 11.6496C105.976 12.0679 105.83 12.4234 105.83 12.4443C105.83 12.4653 106.332 12.7162 106.918 12.9672C109.176 13.9293 111.812 13.7202 113.088 12.4443C113.694 11.8378 113.778 11.6287 113.778 10.6247C113.778 8.93061 113.067 8.32408 110.327 7.63388C108.528 7.19466 107.922 6.83911 107.922 6.16983C107.922 4.95675 109.804 4.45479 111.812 5.14499C112.899 5.50055 113.15 5.39597 113.213 4.49662C113.255 4.01558 113.15 3.89009 112.523 3.66002C111.456 3.28355 109.825 3.15806 108.779 3.36721Z" fill="white"/>
<path d="M127.791 3.36739C126.41 3.63928 125.072 4.55954 124.34 5.73079C123.796 6.65105 123.712 6.94386 123.712 8.34517C123.712 9.70464 123.796 10.0811 124.298 10.9177C125.616 13.1556 128.167 14.0759 130.844 13.2811C135.195 11.9844 135.78 5.83536 131.723 3.91118C130.426 3.28373 129.088 3.11641 127.791 3.36739ZM130.133 5.06151C131.137 5.35432 132.329 6.63013 132.518 7.61314C132.936 9.89288 131.305 11.9216 129.046 11.9216C125.908 11.9216 124.34 8.05236 126.599 5.91902C127.686 4.89419 128.711 4.6432 130.133 5.06151Z" fill="white"/>
<path d="M64.4182 8.34522V13.3857H65.3594H66.3006V11.9217V10.4576H67.6182H68.9359L69.9398 11.9217L70.9437 13.3857H71.9895H73.0143L71.9058 11.7962L70.8182 10.2276L71.4875 9.7047C72.4287 8.97267 72.7842 8.15698 72.7842 6.83934C72.7842 5.45894 72.2195 4.51777 71.0064 3.89032C70.2953 3.51385 69.7097 3.43019 67.3045 3.38836L64.4182 3.3047V8.34522ZM70.2535 5.56352C70.7555 5.98182 70.9019 6.27463 70.9019 6.83934C70.9019 8.36613 69.9607 8.99359 67.66 8.99359H66.3006V7.00666V5.01973H67.9529C69.4378 5.01973 69.6888 5.08247 70.2535 5.56352Z" fill="white"/>
<path d="M74.8757 8.36613V13.3857H75.8169H76.7581V10.1439C76.7581 8.36613 76.8208 6.90208 76.9254 6.923C77.0091 6.923 78.2431 8.38705 79.6653 10.1648C82.196 13.323 82.2587 13.3857 83.0535 13.3857H83.8692V8.36613V3.34653H82.928H81.9868L81.945 6.67202L81.8823 10.0184L79.1842 6.67202C76.5489 3.40927 76.4862 3.34653 75.6914 3.34653H74.8757V8.36613Z" fill="white"/>
<path d="M86.5883 8.36613V13.3857H90.353H94.1177V12.6537V11.9217H91.2941H88.4706V10.4576V8.99359H90.8758H93.2811V8.26156V7.52953H90.8758H88.4706V6.27463V5.01973H91.1896H93.9085V4.18313V3.34653H90.2484H86.5883V8.36613Z" fill="white"/>
<path d="M96.2091 8.34522V13.3857H97.1503H98.0915V11.9217V10.4576H99.4091L100.706 10.4786L101.71 11.9217L102.714 13.3857H103.739H104.784L103.655 11.7962L102.505 10.1857L103.174 9.74653C104.178 9.07725 104.617 8.07332 104.533 6.67202C104.429 5.29162 103.885 4.41319 102.756 3.84849C102.128 3.53476 101.354 3.4511 99.0954 3.38836L96.2091 3.3047V8.34522ZM102.086 5.62627C102.735 6.27463 102.881 7.19489 102.463 7.98966C102.128 8.61711 100.999 8.99359 99.4509 8.99359H98.0915V7.00666V5.01973H99.7856C101.375 5.01973 101.501 5.06156 102.086 5.62627Z" fill="white"/>
<path d="M114.405 4.18313V5.01973H116.078H117.752V9.20274V13.3857H118.693H119.634V9.20274V5.01973H121.307H122.98V4.18313V3.34653H118.693H114.405V4.18313Z" fill="white"/>
<path d="M136.366 8.36613V13.3857H137.307H138.248L138.29 10.0393L138.353 6.71385L141.051 10.0393C143.686 13.323 143.749 13.3857 144.544 13.3857H145.359V8.36613V3.34653H144.418H143.477L143.435 6.67202L143.373 9.97659L140.674 6.67202C138.039 3.40927 137.976 3.34653 137.182 3.34653H136.366V8.36613Z" fill="white"/>
<path d="M148.078 8.36613V13.3857H151.843H155.608V12.6537V11.9217H152.784H149.961V10.4576V8.99359H152.366H154.771V8.26156V7.52953H152.366H149.961V6.27463V5.01973H152.68H155.399V4.18313V3.34653H151.738H148.078V8.36613Z" fill="white"/>
<path d="M44.9673 18.5936C42.6667 19.3047 41.1817 21.2916 41.2026 23.655C41.2235 25.6419 42.2484 27.2733 44.0471 28.1517C46.1804 29.1975 49.1922 28.821 50.5935 27.3151L51.0536 26.8341L50.0915 26.0393L49.1294 25.2655L48.6274 25.7256C47.9582 26.3531 46.3268 26.5204 45.4274 26.0602C44.4863 25.5792 44.068 24.638 44.1725 23.2785C44.3608 20.9361 46.5359 20.0367 48.6065 21.438L49.3176 21.9191L50.0706 21.1452C50.949 20.2459 50.9072 19.974 49.9033 19.3047C48.6484 18.489 46.3895 18.1753 44.9673 18.5936Z" fill="white"/>
<path d="M55.2575 18.719C54.0235 19.0955 53.0405 19.9112 52.3503 21.0824C51.8483 21.8981 51.7646 22.2955 51.7646 23.5295C51.7856 26.7295 53.8352 28.6955 57.2235 28.7164C60.4862 28.7373 62.7032 26.6458 62.7241 23.5295C62.766 19.9739 59.0012 17.5478 55.2575 18.719ZM58.7712 21.2916C59.4823 21.8354 59.8169 22.5255 59.8169 23.5922C59.8169 25.3072 58.813 26.353 57.1607 26.353C55.613 26.3321 54.5882 25.2654 54.5882 23.634C54.5882 21.2916 56.9725 19.953 58.7712 21.2916Z" fill="white"/>
<path d="M99.9739 18.5934C98.3634 19.0954 96.7948 20.5594 96.4183 21.9398C95.8954 23.8222 96.4601 26.2065 97.6941 27.3359C99.702 29.1764 103.843 29.1764 105.579 27.3359L106.039 26.8549L105.077 26.0601L104.136 25.2653L103.634 25.7255C103.299 26.0392 102.776 26.2274 102.107 26.3111C100.204 26.4784 99.1373 25.4536 99.1373 23.4457C99.1373 22.2117 99.7856 21.2915 100.936 20.915C101.814 20.6222 102.525 20.7686 103.55 21.4379L104.303 21.9398L105.119 21.0823L105.935 20.2457L105.14 19.5555C103.969 18.5516 101.605 18.1124 99.9739 18.5934Z" fill="white"/>
<path d="M64.2091 23.634V28.6536H65.5686H66.9071L66.9699 26.0183L67.0326 23.3621L69.2287 26.0183L71.4039 28.6536H72.5124H73.6209V23.634V18.6143H72.2614H70.9228L70.8601 21.1451L70.7973 23.6967L68.7058 21.166L66.6143 18.6143H65.4222H64.2091V23.634Z" fill="white"/>
<path d="M75.7124 23.634V28.6536H77.0719H78.4104L78.4732 26.0183L78.5359 23.4039L80.7111 26.0183L82.8863 28.6536H83.9948H85.1242V23.634V18.6143H83.7647H82.4261L82.3634 21.166L82.3006 23.7385L80.2091 21.1869L78.1176 18.6353H76.9255L75.7124 18.6143V23.634Z" fill="white"/>
<path d="M87.2157 23.634V28.6536H91.1896H95.1634V27.5032V26.3529H92.549H89.9347V25.4117V24.4706H92.1307H94.3268V23.4248V22.3791H92.1307H89.9347V21.5425V20.7059H92.4445H94.9543V19.6601V18.6143H91.085H87.2157V23.634Z" fill="white"/>
<path d="M106.708 19.702L106.771 20.8105L108.298 20.8733L109.804 20.936V24.8053V28.6746L111.226 28.6118L112.627 28.5491L112.69 24.7216L112.732 20.9151H114.196H115.66V19.7648V18.6144H111.142H106.646L106.708 19.702Z" fill="white"/>
</g>
<defs>
<clipPath id="clip0_155_136">
<rect width="155.608" height="32" fill="white"/>
</clipPath>
</defs>
</svg>
